<svg id="Layer_1" enable-background="new 0 0 512.036 512.036" height="512" viewBox="0 0 512.036 512.036" width="512" xmlns="http://www.w3.org/2000/svg"><path d="m496.036 64.018c-61.757 0-112 50.243-112 112v160c0 79.402-64.598 144-144 144h-32c-47.484 0-87.027-34.655-94.667-80h32.691c7.123 27.573 32.209 48 61.976 48h32c61.757 0 112-50.243 112-112v-160c0-79.402 64.598-144 144-144 8.837 0 16-7.164 16-16s-7.163-16-16-16c-97.047 0-176 78.953-176 176v160c0 44.112-35.888 80-80 80h-32c-12.034 0-22.534-6.68-27.997-16.525 6.896-1.78 11.997-8.023 11.997-15.475v-48h16c7.144 0 13.422-4.736 15.385-11.604 35.01-122.534 32.615-113.194 32.615-116.396v-48c0-8.836-7.163-16-16-16v-112c0-8.836-7.163-16-16-16h-48c0-8.836-7.163-16-16-16h-64c-8.837 0-16 7.164-16 16h-48c-8.837 0-16 7.164-16 16v112c-8.837 0-16 7.164-16 16 0 51.704-.259 49.334.615 52.396l32 112c1.963 6.869 8.241 11.604 15.385 11.604h16v48c0 8.106 6.099 16 16.998 16 7.898 63.056 61.841 112 127.002 112h32c97.047 0 176-78.953 176-176v-160c0-44.112 35.888-80 80-80 8.837 0 16-7.164 16-16s-7.163-16-16-16zm-288-16v96h-64v-32h16c8.837 0 16-7.164 16-16v-48zm-64-16v48h-32v-48zm-64 16v48c0 8.836 7.163 16 16 16h16v32h-64v-96zm-48 157.759v-29.759h192v29.759l-28.068 98.241c-40.149 0-91.054 0-135.863 0zm128 130.241v32h-64v-32z"/><path d="m176.036 240.018c8.837 0 16-7.164 16-16s-7.163-16-16-16h-96c-8.837 0-16 7.164-16 16s7.163 16 16 16z"/></svg>